<mxfile host="app.diagrams.net" agent="Mozilla/5.0 (X11; Linux x86_64; rv:130.0) Gecko/20100101 Firefox/130.0" version="24.7.16">
  <diagram name="Page-1" id="4VzhP1j-xMKvrbi8w3Jx">
    <mxGraphModel dx="1964" dy="612" grid="1" gridSize="10" guides="1" tooltips="1" connect="1" arrows="1" fold="1" page="1" pageScale="1" pageWidth="850" pageHeight="1100" math="0" shadow="0">
      <root>
        <mxCell id="0" />
        <mxCell id="1" parent="0" />
        <mxCell id="OEH6NZArvay8V3_rImQ_-52" style="edgeStyle=orthogonalEdgeStyle;rounded=0;orthogonalLoop=1;jettySize=auto;html=1;exitX=0.5;exitY=1;exitDx=0;exitDy=0;entryX=0.25;entryY=0;entryDx=0;entryDy=0;strokeColor=#1a5fb4;" edge="1" parent="1" source="OEH6NZArvay8V3_rImQ_-1" target="OEH6NZArvay8V3_rImQ_-28">
          <mxGeometry relative="1" as="geometry" />
        </mxCell>
        <mxCell id="OEH6NZArvay8V3_rImQ_-55" style="edgeStyle=orthogonalEdgeStyle;rounded=0;orthogonalLoop=1;jettySize=auto;html=1;exitX=0.5;exitY=1;exitDx=0;exitDy=0;entryX=0.25;entryY=0;entryDx=0;entryDy=0;strokeColor=#1a5fb4;" edge="1" parent="1" source="OEH6NZArvay8V3_rImQ_-1" target="OEH6NZArvay8V3_rImQ_-30">
          <mxGeometry relative="1" as="geometry">
            <Array as="points">
              <mxPoint x="60" y="290" />
              <mxPoint x="333" y="290" />
            </Array>
          </mxGeometry>
        </mxCell>
        <mxCell id="OEH6NZArvay8V3_rImQ_-78" style="edgeStyle=orthogonalEdgeStyle;rounded=0;orthogonalLoop=1;jettySize=auto;html=1;exitX=0.5;exitY=1;exitDx=0;exitDy=0;strokeColor=#1a5fb4;" edge="1" parent="1" source="OEH6NZArvay8V3_rImQ_-1">
          <mxGeometry relative="1" as="geometry">
            <mxPoint x="-30" y="870" as="targetPoint" />
            <Array as="points">
              <mxPoint x="60" y="250" />
              <mxPoint x="-30" y="250" />
              <mxPoint x="-30" y="781" />
            </Array>
          </mxGeometry>
        </mxCell>
        <mxCell id="OEH6NZArvay8V3_rImQ_-1" value="REG1" style="rounded=0;whiteSpace=wrap;html=1;fillColor=#1a5fb4;" vertex="1" parent="1">
          <mxGeometry y="160" width="120" height="60" as="geometry" />
        </mxCell>
        <mxCell id="OEH6NZArvay8V3_rImQ_-43" style="edgeStyle=orthogonalEdgeStyle;rounded=0;orthogonalLoop=1;jettySize=auto;html=1;exitX=0.5;exitY=1;exitDx=0;exitDy=0;entryX=0.75;entryY=0;entryDx=0;entryDy=0;strokeColor=#26a269;" edge="1" parent="1" source="OEH6NZArvay8V3_rImQ_-2" target="OEH6NZArvay8V3_rImQ_-25">
          <mxGeometry relative="1" as="geometry" />
        </mxCell>
        <mxCell id="OEH6NZArvay8V3_rImQ_-59" style="edgeStyle=orthogonalEdgeStyle;rounded=0;orthogonalLoop=1;jettySize=auto;html=1;exitX=0.5;exitY=1;exitDx=0;exitDy=0;entryX=0.25;entryY=0;entryDx=0;entryDy=0;strokeColor=#26a269;" edge="1" parent="1" source="OEH6NZArvay8V3_rImQ_-2" target="OEH6NZArvay8V3_rImQ_-47">
          <mxGeometry relative="1" as="geometry">
            <Array as="points">
              <mxPoint x="220" y="240" />
              <mxPoint x="443" y="240" />
            </Array>
          </mxGeometry>
        </mxCell>
        <mxCell id="OEH6NZArvay8V3_rImQ_-2" value="REG2" style="rounded=0;whiteSpace=wrap;html=1;fillColor=#26a269;" vertex="1" parent="1">
          <mxGeometry x="160" y="160" width="120" height="60" as="geometry" />
        </mxCell>
        <mxCell id="OEH6NZArvay8V3_rImQ_-53" style="edgeStyle=orthogonalEdgeStyle;rounded=0;orthogonalLoop=1;jettySize=auto;html=1;exitX=0.25;exitY=1;exitDx=0;exitDy=0;entryX=0.5;entryY=0;entryDx=0;entryDy=0;strokeColor=#e5a50a;" edge="1" parent="1" source="OEH6NZArvay8V3_rImQ_-3" target="OEH6NZArvay8V3_rImQ_-28">
          <mxGeometry relative="1" as="geometry" />
        </mxCell>
        <mxCell id="OEH6NZArvay8V3_rImQ_-57" style="edgeStyle=orthogonalEdgeStyle;rounded=0;orthogonalLoop=1;jettySize=auto;html=1;exitX=0.25;exitY=1;exitDx=0;exitDy=0;entryX=0.5;entryY=0;entryDx=0;entryDy=0;strokeColor=#e5a50a;" edge="1" parent="1" source="OEH6NZArvay8V3_rImQ_-3" target="OEH6NZArvay8V3_rImQ_-30">
          <mxGeometry relative="1" as="geometry" />
        </mxCell>
        <mxCell id="OEH6NZArvay8V3_rImQ_-3" value="REG3" style="rounded=0;whiteSpace=wrap;html=1;fillColor=#e5a50a;" vertex="1" parent="1">
          <mxGeometry x="320" y="160" width="120" height="60" as="geometry" />
        </mxCell>
        <mxCell id="OEH6NZArvay8V3_rImQ_-54" style="edgeStyle=orthogonalEdgeStyle;rounded=0;orthogonalLoop=1;jettySize=auto;html=1;exitX=0.5;exitY=1;exitDx=0;exitDy=0;entryX=0.75;entryY=0;entryDx=0;entryDy=0;strokeColor=#a51d2d;" edge="1" parent="1" source="OEH6NZArvay8V3_rImQ_-4" target="OEH6NZArvay8V3_rImQ_-28">
          <mxGeometry relative="1" as="geometry">
            <Array as="points">
              <mxPoint x="540" y="280" />
              <mxPoint x="125" y="280" />
            </Array>
          </mxGeometry>
        </mxCell>
        <mxCell id="OEH6NZArvay8V3_rImQ_-58" style="edgeStyle=orthogonalEdgeStyle;rounded=0;orthogonalLoop=1;jettySize=auto;html=1;exitX=0.5;exitY=1;exitDx=0;exitDy=0;entryX=0.75;entryY=0;entryDx=0;entryDy=0;strokeColor=#a51d2d;" edge="1" parent="1" source="OEH6NZArvay8V3_rImQ_-4" target="OEH6NZArvay8V3_rImQ_-30">
          <mxGeometry relative="1" as="geometry">
            <Array as="points">
              <mxPoint x="540" y="280" />
              <mxPoint x="378" y="280" />
            </Array>
          </mxGeometry>
        </mxCell>
        <mxCell id="OEH6NZArvay8V3_rImQ_-60" style="edgeStyle=orthogonalEdgeStyle;rounded=0;orthogonalLoop=1;jettySize=auto;html=1;exitX=0.5;exitY=1;exitDx=0;exitDy=0;entryX=0.5;entryY=0;entryDx=0;entryDy=0;strokeColor=#a51d2d;" edge="1" parent="1" source="OEH6NZArvay8V3_rImQ_-4" target="OEH6NZArvay8V3_rImQ_-47">
          <mxGeometry relative="1" as="geometry">
            <Array as="points">
              <mxPoint x="540" y="280" />
              <mxPoint x="465" y="280" />
            </Array>
          </mxGeometry>
        </mxCell>
        <mxCell id="OEH6NZArvay8V3_rImQ_-4" value="REG4" style="rounded=0;whiteSpace=wrap;html=1;fillColor=#a51d2d;" vertex="1" parent="1">
          <mxGeometry x="480" y="160" width="120" height="60" as="geometry" />
        </mxCell>
        <mxCell id="OEH6NZArvay8V3_rImQ_-44" style="edgeStyle=orthogonalEdgeStyle;rounded=0;orthogonalLoop=1;jettySize=auto;html=1;exitX=0.5;exitY=1;exitDx=0;exitDy=0;entryX=0.25;entryY=0;entryDx=0;entryDy=0;" edge="1" parent="1" source="OEH6NZArvay8V3_rImQ_-5" target="OEH6NZArvay8V3_rImQ_-26">
          <mxGeometry relative="1" as="geometry">
            <Array as="points">
              <mxPoint x="700" y="360" />
              <mxPoint x="615" y="360" />
            </Array>
          </mxGeometry>
        </mxCell>
        <mxCell id="OEH6NZArvay8V3_rImQ_-61" style="edgeStyle=orthogonalEdgeStyle;rounded=0;orthogonalLoop=1;jettySize=auto;html=1;exitX=0.5;exitY=1;exitDx=0;exitDy=0;entryX=0.75;entryY=0;entryDx=0;entryDy=0;" edge="1" parent="1" source="OEH6NZArvay8V3_rImQ_-5" target="OEH6NZArvay8V3_rImQ_-47">
          <mxGeometry relative="1" as="geometry">
            <Array as="points">
              <mxPoint x="700" y="300" />
              <mxPoint x="488" y="300" />
            </Array>
          </mxGeometry>
        </mxCell>
        <mxCell id="OEH6NZArvay8V3_rImQ_-5" value="REG5" style="rounded=0;whiteSpace=wrap;html=1;" vertex="1" parent="1">
          <mxGeometry x="640" y="160" width="120" height="60" as="geometry" />
        </mxCell>
        <mxCell id="OEH6NZArvay8V3_rImQ_-45" style="edgeStyle=orthogonalEdgeStyle;rounded=0;orthogonalLoop=1;jettySize=auto;html=1;exitX=0.5;exitY=1;exitDx=0;exitDy=0;entryX=0.75;entryY=0;entryDx=0;entryDy=0;" edge="1" parent="1" source="OEH6NZArvay8V3_rImQ_-6" target="OEH6NZArvay8V3_rImQ_-26">
          <mxGeometry relative="1" as="geometry">
            <Array as="points">
              <mxPoint x="860" y="370" />
              <mxPoint x="705" y="370" />
            </Array>
          </mxGeometry>
        </mxCell>
        <mxCell id="OEH6NZArvay8V3_rImQ_-6" value="&lt;div&gt;REG6&lt;/div&gt;" style="rounded=0;whiteSpace=wrap;html=1;" vertex="1" parent="1">
          <mxGeometry x="800" y="160" width="120" height="60" as="geometry" />
        </mxCell>
        <mxCell id="OEH6NZArvay8V3_rImQ_-13" style="edgeStyle=orthogonalEdgeStyle;rounded=0;orthogonalLoop=1;jettySize=auto;html=1;exitX=0.5;exitY=1;exitDx=0;exitDy=0;entryX=0.5;entryY=0;entryDx=0;entryDy=0;" edge="1" parent="1" source="OEH6NZArvay8V3_rImQ_-7" target="OEH6NZArvay8V3_rImQ_-1">
          <mxGeometry relative="1" as="geometry" />
        </mxCell>
        <mxCell id="OEH6NZArvay8V3_rImQ_-7" value="MUX R1" style="shape=trapezoid;perimeter=trapezoidPerimeter;whiteSpace=wrap;html=1;fixedSize=1;flipV=1;" vertex="1" parent="1">
          <mxGeometry y="60" width="120" height="60" as="geometry" />
        </mxCell>
        <mxCell id="OEH6NZArvay8V3_rImQ_-14" value="" style="edgeStyle=orthogonalEdgeStyle;rounded=0;orthogonalLoop=1;jettySize=auto;html=1;" edge="1" parent="1" source="OEH6NZArvay8V3_rImQ_-8" target="OEH6NZArvay8V3_rImQ_-2">
          <mxGeometry relative="1" as="geometry" />
        </mxCell>
        <mxCell id="OEH6NZArvay8V3_rImQ_-8" value="MUX R2" style="shape=trapezoid;perimeter=trapezoidPerimeter;whiteSpace=wrap;html=1;fixedSize=1;flipV=1;" vertex="1" parent="1">
          <mxGeometry x="160" y="60" width="120" height="60" as="geometry" />
        </mxCell>
        <mxCell id="OEH6NZArvay8V3_rImQ_-15" value="" style="edgeStyle=orthogonalEdgeStyle;rounded=0;orthogonalLoop=1;jettySize=auto;html=1;" edge="1" parent="1" source="OEH6NZArvay8V3_rImQ_-9" target="OEH6NZArvay8V3_rImQ_-3">
          <mxGeometry relative="1" as="geometry" />
        </mxCell>
        <mxCell id="OEH6NZArvay8V3_rImQ_-9" value="MUX R3" style="shape=trapezoid;perimeter=trapezoidPerimeter;whiteSpace=wrap;html=1;fixedSize=1;flipV=1;" vertex="1" parent="1">
          <mxGeometry x="320" y="60" width="120" height="60" as="geometry" />
        </mxCell>
        <mxCell id="OEH6NZArvay8V3_rImQ_-16" value="" style="edgeStyle=orthogonalEdgeStyle;rounded=0;orthogonalLoop=1;jettySize=auto;html=1;" edge="1" parent="1" source="OEH6NZArvay8V3_rImQ_-10" target="OEH6NZArvay8V3_rImQ_-4">
          <mxGeometry relative="1" as="geometry" />
        </mxCell>
        <mxCell id="OEH6NZArvay8V3_rImQ_-10" value="MUX R4" style="shape=trapezoid;perimeter=trapezoidPerimeter;whiteSpace=wrap;html=1;fixedSize=1;flipV=1;" vertex="1" parent="1">
          <mxGeometry x="480" y="60" width="120" height="60" as="geometry" />
        </mxCell>
        <mxCell id="OEH6NZArvay8V3_rImQ_-17" value="" style="edgeStyle=orthogonalEdgeStyle;rounded=0;orthogonalLoop=1;jettySize=auto;html=1;" edge="1" parent="1" source="OEH6NZArvay8V3_rImQ_-11" target="OEH6NZArvay8V3_rImQ_-5">
          <mxGeometry relative="1" as="geometry" />
        </mxCell>
        <mxCell id="OEH6NZArvay8V3_rImQ_-11" value="MUX R5" style="shape=trapezoid;perimeter=trapezoidPerimeter;whiteSpace=wrap;html=1;fixedSize=1;flipV=1;" vertex="1" parent="1">
          <mxGeometry x="640" y="60" width="120" height="60" as="geometry" />
        </mxCell>
        <mxCell id="OEH6NZArvay8V3_rImQ_-18" value="" style="edgeStyle=orthogonalEdgeStyle;rounded=0;orthogonalLoop=1;jettySize=auto;html=1;" edge="1" parent="1" target="OEH6NZArvay8V3_rImQ_-6">
          <mxGeometry relative="1" as="geometry">
            <mxPoint x="670" y="20" as="sourcePoint" />
          </mxGeometry>
        </mxCell>
        <mxCell id="OEH6NZArvay8V3_rImQ_-19" value="" style="endArrow=classic;html=1;rounded=0;entryX=0.25;entryY=0;entryDx=0;entryDy=0;" edge="1" parent="1" target="OEH6NZArvay8V3_rImQ_-11">
          <mxGeometry width="50" height="50" relative="1" as="geometry">
            <mxPoint x="-150" y="20" as="sourcePoint" />
            <mxPoint x="830" y="60" as="targetPoint" />
            <Array as="points">
              <mxPoint x="670" y="20" />
            </Array>
          </mxGeometry>
        </mxCell>
        <mxCell id="OEH6NZArvay8V3_rImQ_-20" value="" style="endArrow=classic;html=1;rounded=0;entryX=0.25;entryY=0;entryDx=0;entryDy=0;" edge="1" parent="1" target="OEH6NZArvay8V3_rImQ_-7">
          <mxGeometry width="50" height="50" relative="1" as="geometry">
            <mxPoint x="30" y="20" as="sourcePoint" />
            <mxPoint x="450" y="160" as="targetPoint" />
          </mxGeometry>
        </mxCell>
        <mxCell id="OEH6NZArvay8V3_rImQ_-21" value="" style="endArrow=classic;html=1;rounded=0;entryX=0.25;entryY=0;entryDx=0;entryDy=0;" edge="1" parent="1" target="OEH6NZArvay8V3_rImQ_-8">
          <mxGeometry width="50" height="50" relative="1" as="geometry">
            <mxPoint x="190" y="20" as="sourcePoint" />
            <mxPoint x="40" y="70" as="targetPoint" />
          </mxGeometry>
        </mxCell>
        <mxCell id="OEH6NZArvay8V3_rImQ_-22" value="" style="endArrow=classic;html=1;rounded=0;entryX=0.25;entryY=0;entryDx=0;entryDy=0;" edge="1" parent="1">
          <mxGeometry width="50" height="50" relative="1" as="geometry">
            <mxPoint x="350" y="21" as="sourcePoint" />
            <mxPoint x="350" y="61" as="targetPoint" />
          </mxGeometry>
        </mxCell>
        <mxCell id="OEH6NZArvay8V3_rImQ_-23" value="" style="endArrow=classic;html=1;rounded=0;entryX=0.25;entryY=0;entryDx=0;entryDy=0;" edge="1" parent="1" target="OEH6NZArvay8V3_rImQ_-10">
          <mxGeometry width="50" height="50" relative="1" as="geometry">
            <mxPoint x="510" y="20" as="sourcePoint" />
            <mxPoint x="105" y="65" as="targetPoint" />
          </mxGeometry>
        </mxCell>
        <mxCell id="OEH6NZArvay8V3_rImQ_-65" value="" style="edgeStyle=orthogonalEdgeStyle;rounded=0;orthogonalLoop=1;jettySize=auto;html=1;" edge="1" parent="1" source="OEH6NZArvay8V3_rImQ_-25" target="OEH6NZArvay8V3_rImQ_-62">
          <mxGeometry relative="1" as="geometry" />
        </mxCell>
        <mxCell id="OEH6NZArvay8V3_rImQ_-25" value="MUL 1" style="rounded=0;whiteSpace=wrap;html=1;" vertex="1" parent="1">
          <mxGeometry x="90" y="410" width="180" height="120" as="geometry" />
        </mxCell>
        <mxCell id="OEH6NZArvay8V3_rImQ_-77" style="edgeStyle=orthogonalEdgeStyle;rounded=0;orthogonalLoop=1;jettySize=auto;html=1;exitX=0.5;exitY=1;exitDx=0;exitDy=0;entryX=0.75;entryY=0;entryDx=0;entryDy=0;" edge="1" parent="1" source="OEH6NZArvay8V3_rImQ_-26" target="OEH6NZArvay8V3_rImQ_-11">
          <mxGeometry relative="1" as="geometry">
            <Array as="points">
              <mxPoint x="660" y="620" />
              <mxPoint x="780" y="620" />
              <mxPoint x="780" y="40" />
              <mxPoint x="730" y="40" />
            </Array>
          </mxGeometry>
        </mxCell>
        <mxCell id="OEH6NZArvay8V3_rImQ_-26" value="MUL 2" style="rounded=0;whiteSpace=wrap;html=1;" vertex="1" parent="1">
          <mxGeometry x="570" y="410" width="180" height="120" as="geometry" />
        </mxCell>
        <mxCell id="OEH6NZArvay8V3_rImQ_-66" value="" style="edgeStyle=orthogonalEdgeStyle;rounded=0;orthogonalLoop=1;jettySize=auto;html=1;" edge="1" parent="1" source="OEH6NZArvay8V3_rImQ_-27" target="OEH6NZArvay8V3_rImQ_-63">
          <mxGeometry relative="1" as="geometry" />
        </mxCell>
        <mxCell id="OEH6NZArvay8V3_rImQ_-27" value="ALU" style="shape=offPageConnector;whiteSpace=wrap;html=1;" vertex="1" parent="1">
          <mxGeometry x="330" y="410" width="180" height="120" as="geometry" />
        </mxCell>
        <mxCell id="OEH6NZArvay8V3_rImQ_-40" style="edgeStyle=orthogonalEdgeStyle;rounded=0;orthogonalLoop=1;jettySize=auto;html=1;exitX=0.5;exitY=1;exitDx=0;exitDy=0;entryX=0.25;entryY=0;entryDx=0;entryDy=0;" edge="1" parent="1" source="OEH6NZArvay8V3_rImQ_-28" target="OEH6NZArvay8V3_rImQ_-25">
          <mxGeometry relative="1" as="geometry" />
        </mxCell>
        <mxCell id="OEH6NZArvay8V3_rImQ_-28" value="MUX MUL" style="shape=trapezoid;perimeter=trapezoidPerimeter;whiteSpace=wrap;html=1;fixedSize=1;flipV=1;" vertex="1" parent="1">
          <mxGeometry x="-10" y="310" width="180" height="60" as="geometry" />
        </mxCell>
        <mxCell id="OEH6NZArvay8V3_rImQ_-50" style="edgeStyle=orthogonalEdgeStyle;rounded=0;orthogonalLoop=1;jettySize=auto;html=1;exitX=0.5;exitY=1;exitDx=0;exitDy=0;entryX=0.25;entryY=0;entryDx=0;entryDy=0;" edge="1" parent="1" source="OEH6NZArvay8V3_rImQ_-30" target="OEH6NZArvay8V3_rImQ_-27">
          <mxGeometry relative="1" as="geometry" />
        </mxCell>
        <mxCell id="OEH6NZArvay8V3_rImQ_-30" value="MUX ALU1" style="shape=trapezoid;perimeter=trapezoidPerimeter;whiteSpace=wrap;html=1;fixedSize=1;flipV=1;" vertex="1" parent="1">
          <mxGeometry x="310" y="320" width="90" height="60" as="geometry" />
        </mxCell>
        <mxCell id="OEH6NZArvay8V3_rImQ_-51" style="edgeStyle=orthogonalEdgeStyle;rounded=0;orthogonalLoop=1;jettySize=auto;html=1;exitX=0.5;exitY=1;exitDx=0;exitDy=0;entryX=0.75;entryY=0;entryDx=0;entryDy=0;" edge="1" parent="1" source="OEH6NZArvay8V3_rImQ_-47" target="OEH6NZArvay8V3_rImQ_-27">
          <mxGeometry relative="1" as="geometry" />
        </mxCell>
        <mxCell id="OEH6NZArvay8V3_rImQ_-47" value="MUX ALU2" style="shape=trapezoid;perimeter=trapezoidPerimeter;whiteSpace=wrap;html=1;fixedSize=1;flipV=1;" vertex="1" parent="1">
          <mxGeometry x="420" y="320" width="90" height="60" as="geometry" />
        </mxCell>
        <mxCell id="OEH6NZArvay8V3_rImQ_-69" style="edgeStyle=orthogonalEdgeStyle;rounded=0;orthogonalLoop=1;jettySize=auto;html=1;exitX=0.25;exitY=1;exitDx=0;exitDy=0;entryX=0.75;entryY=0;entryDx=0;entryDy=0;strokeColor=#1a5fb4;" edge="1" parent="1" source="OEH6NZArvay8V3_rImQ_-62" target="OEH6NZArvay8V3_rImQ_-7">
          <mxGeometry relative="1" as="geometry">
            <Array as="points">
              <mxPoint x="140" y="650" />
              <mxPoint x="-60" y="650" />
              <mxPoint x="-60" y="40" />
              <mxPoint x="90" y="40" />
            </Array>
          </mxGeometry>
        </mxCell>
        <mxCell id="OEH6NZArvay8V3_rImQ_-70" style="edgeStyle=orthogonalEdgeStyle;rounded=0;orthogonalLoop=1;jettySize=auto;html=1;exitX=0.5;exitY=1;exitDx=0;exitDy=0;entryX=0.75;entryY=0;entryDx=0;entryDy=0;strokeColor=#26a269;" edge="1" parent="1" source="OEH6NZArvay8V3_rImQ_-62" target="OEH6NZArvay8V3_rImQ_-8">
          <mxGeometry relative="1" as="geometry">
            <Array as="points">
              <mxPoint x="180" y="670" />
              <mxPoint x="300" y="670" />
              <mxPoint x="300" y="40" />
              <mxPoint x="250" y="40" />
            </Array>
          </mxGeometry>
        </mxCell>
        <mxCell id="OEH6NZArvay8V3_rImQ_-75" style="edgeStyle=orthogonalEdgeStyle;rounded=0;orthogonalLoop=1;jettySize=auto;html=1;exitX=0.75;exitY=1;exitDx=0;exitDy=0;entryX=0.75;entryY=0;entryDx=0;entryDy=0;strokeColor=#e5a50a;" edge="1" parent="1" source="OEH6NZArvay8V3_rImQ_-62" target="OEH6NZArvay8V3_rImQ_-9">
          <mxGeometry relative="1" as="geometry">
            <Array as="points">
              <mxPoint x="220" y="680" />
              <mxPoint x="520" y="680" />
              <mxPoint x="520" y="250" />
              <mxPoint x="450" y="250" />
              <mxPoint x="450" y="40" />
              <mxPoint x="410" y="40" />
            </Array>
          </mxGeometry>
        </mxCell>
        <mxCell id="OEH6NZArvay8V3_rImQ_-62" value="DMUX MUL" style="shape=trapezoid;perimeter=trapezoidPerimeter;whiteSpace=wrap;html=1;fixedSize=1;" vertex="1" parent="1">
          <mxGeometry x="100" y="570" width="160" height="60" as="geometry" />
        </mxCell>
        <mxCell id="OEH6NZArvay8V3_rImQ_-76" style="edgeStyle=orthogonalEdgeStyle;rounded=0;orthogonalLoop=1;jettySize=auto;html=1;exitX=0.75;exitY=1;exitDx=0;exitDy=0;entryX=0.75;entryY=0;entryDx=0;entryDy=0;strokeColor=#a51d2d;" edge="1" parent="1" source="OEH6NZArvay8V3_rImQ_-63" target="OEH6NZArvay8V3_rImQ_-10">
          <mxGeometry relative="1" as="geometry">
            <Array as="points">
              <mxPoint x="460" y="660" />
              <mxPoint x="560" y="660" />
              <mxPoint x="560" y="340" />
              <mxPoint x="620" y="340" />
              <mxPoint x="620" y="40" />
              <mxPoint x="570" y="40" />
            </Array>
          </mxGeometry>
        </mxCell>
        <mxCell id="OEH6NZArvay8V3_rImQ_-63" value="DMUX ALU" style="shape=trapezoid;perimeter=trapezoidPerimeter;whiteSpace=wrap;html=1;fixedSize=1;" vertex="1" parent="1">
          <mxGeometry x="340" y="580" width="160" height="60" as="geometry" />
        </mxCell>
        <mxCell id="OEH6NZArvay8V3_rImQ_-73" value="" style="endArrow=none;html=1;rounded=0;entryX=0.25;entryY=1;entryDx=0;entryDy=0;strokeColor=#1a5fb4;" edge="1" parent="1" target="OEH6NZArvay8V3_rImQ_-63">
          <mxGeometry width="50" height="50" relative="1" as="geometry">
            <mxPoint x="-60" y="650" as="sourcePoint" />
            <mxPoint x="350" y="560" as="targetPoint" />
            <Array as="points">
              <mxPoint x="-60" y="720" />
              <mxPoint x="380" y="720" />
            </Array>
          </mxGeometry>
        </mxCell>
        <mxCell id="OEH6NZArvay8V3_rImQ_-74" value="" style="endArrow=none;html=1;rounded=0;entryX=0.5;entryY=1;entryDx=0;entryDy=0;strokeColor=#26a269;" edge="1" parent="1" target="OEH6NZArvay8V3_rImQ_-63">
          <mxGeometry width="50" height="50" relative="1" as="geometry">
            <mxPoint x="300" y="670" as="sourcePoint" />
            <mxPoint x="350" y="560" as="targetPoint" />
            <Array as="points">
              <mxPoint x="420" y="670" />
            </Array>
          </mxGeometry>
        </mxCell>
        <mxCell id="OEH6NZArvay8V3_rImQ_-79" value="MEM_IN" style="text;html=1;align=center;verticalAlign=middle;resizable=0;points=[];autosize=1;strokeColor=none;fillColor=none;" vertex="1" parent="1">
          <mxGeometry x="-175" y="18" width="70" height="30" as="geometry" />
        </mxCell>
        <mxCell id="OEH6NZArvay8V3_rImQ_-80" value="MEM_OUT" style="text;html=1;align=center;verticalAlign=middle;resizable=0;points=[];autosize=1;strokeColor=none;fillColor=none;" vertex="1" parent="1">
          <mxGeometry x="-30" y="820" width="80" height="30" as="geometry" />
        </mxCell>
      </root>
    </mxGraphModel>
  </diagram>
</mxfile>
